<svg width="32" height="32" viewBox="0 0 32 32" fill="none" xmlns="http://www.w3.org/2000/svg">
  <defs>
    <linearGradient id="dodoGrad" x1="0" y1="0" x2="32" y2="32" gradientUnits="userSpaceOnUse">
      <stop stop-color="#22d3ee"/>
      <stop offset="1" stop-color="#3b82f6"/>
    </linearGradient>
  </defs>
  <!-- Organic Dodo Shape -->
  <path d="M10 2C5.58172 2 2 5.58172 2 10V22C2 26.4183 5.58172 30 10 30H22C26.4183 30 30 26.4183 30 22V10C30 5.58172 26.4183 2 22 2H10Z" fill="url(#dodoGrad)"/>
  <path d="M10 2C5.58172 2 2 7 2 14V18C2 25 5.58172 30 10 30H22C27 30 30 25 30 18V14C30 7 27 2 22 2H10Z" fill="url(#dodoGrad)"/>
  
  <!-- Eye -->
  <circle cx="20" cy="11" r="5" fill="white" fill-opacity="0.9"/>
  <circle cx="21" cy="11" r="2.5" fill="#020617"/>
</svg>